<svg xmlns="http://www.w3.org/2000/svg">
  <path d="M94.772 141.428v.622l-.03.655-.059.655-.088.687-.118.688-.147.688-.177.72-.236.72-.236.72-.266.721-.324.72-.384.721-.383.688-.443.72-.501.688-.531.687-.56.655-.65.622-.648.623-.738.622-.796.556-.826.557-.885.491-.973.491-1.003.459-1.062.393-1.15.393-1.18.327-.62.131-.649.131-.649.131-.678.098-.678.099-.708.098-.738.065-.737.066c-.738.164-1.298.819-1.298 1.8 0 1.77 1.622 1.77 2.89 1.77 14.306 0 27.934-7.958 28.081-20.336v-37.199c0-6.418 0-11.624 5.9-16.995 5.161-4.748 10.736-5.075 13.951-5.239.738-.13 1.357-.818 1.357-1.768 0-1.637-.914-1.637-2.36-1.801-9.733-.655-16.783-6.55-18.376-14.539-.472-1.768-.472-2.096-.472-7.957V24.919c0-6.81 0-12.083-7.05-18.272C91.705 1.605 81.559 0 76.515 0c-1.269 0-2.891 0-2.891 1.801 0 1.637.885 1.637 2.36 1.801 9.203.59 16.459 5.861 18.347 14.146.442 1.506.442 1.801.442 7.695v34.285c0 7.466 1.15 10.216 5.87 15.488 3.067 3.373 7.374 5.01 11.474 6.353-12.035 3.733-17.344 11.264-17.344 20.728v39.13z"/>
</svg>
